<svg xmlns="http://www.w3.org/2000/svg" xmlns:xlink="http://www.w3.org/1999/xlink" width="500" zoomAndPan="magnify" viewBox="0 0 375 374.999991" height="500" preserveAspectRatio="xMidYMid meet" version="1.0"><defs><clipPath id="8b649bfc03"><path d="M 6.207031 186.347656 L 126.199219 186.347656 L 126.199219 249.449219 L 6.207031 249.449219 Z M 6.207031 186.347656 " clip-rule="nonzero"/></clipPath><clipPath id="6a7fe86753"><path d="M 126.167969 217.882812 C 126.167969 200.609375 111.453125 186.625 93.324219 186.625 L 61.730469 209.296875 L 6.265625 249.140625 L 93.324219 249.140625 C 111.46875 249.140625 126.167969 235.152344 126.167969 217.882812 " clip-rule="nonzero"/></clipPath><clipPath id="b2a1af90c2"><path d="M 6.207031 125.835938 L 126.199219 125.835938 L 126.199219 188.417969 L 6.207031 188.417969 Z M 6.207031 125.835938 " clip-rule="nonzero"/></clipPath><clipPath id="973f1c7e2f"><path d="M 126.167969 157.125 C 126.167969 174.382812 111.453125 188.382812 93.324219 188.382812 L 61.730469 165.699219 L 6.265625 125.867188 L 93.324219 125.867188 C 111.46875 125.867188 126.167969 139.855469 126.167969 157.125 " clip-rule="nonzero"/></clipPath><clipPath id="56606032b7"><path d="M 6.207031 148.074219 L 61 148.074219 L 61 227 L 6.207031 227 Z M 6.207031 148.074219 " clip-rule="nonzero"/></clipPath><clipPath id="60ebdb40aa"><path d="M 6.238281 226.765625 L 6.238281 148.242188 L 60.78125 187.496094 " clip-rule="nonzero"/></clipPath><clipPath id="b195741c83"><path d="M 190 188.027344 L 278 188.027344 L 278 249.496094 L 190 249.496094 Z M 190 188.027344 " clip-rule="nonzero"/></clipPath><clipPath id="7e4471bac7"><path d="M 277.894531 249.082031 L 190.046875 249.082031 L 233.972656 188.066406 " clip-rule="nonzero"/></clipPath><clipPath id="8a7201ad7e"><path d="M 145.117188 125.5 L 322.628906 125.5 L 322.628906 249.496094 L 145.117188 249.496094 Z M 145.117188 125.5 " clip-rule="nonzero"/></clipPath><clipPath id="366637009f"><path d="M 322.429688 249.082031 L 300.464844 249.082031 L 233.984375 156.707031 L 167.476562 249.082031 L 145.527344 249.082031 L 202.6875 169.472656 L 233.984375 125.910156 L 265.253906 169.472656 " clip-rule="nonzero"/></clipPath><clipPath id="60ab56df65"><path d="M 341.539062 125.914062 L 375 125.914062 L 375 249.097656 L 341.539062 249.097656 Z M 341.539062 125.914062 " clip-rule="nonzero"/></clipPath></defs><g clip-path="url(#8b649bfc03)"><g clip-path="url(#6a7fe86753)"><path fill="#aab89b" d="M 0 119.628906 L 132.40625 119.628906 L 132.40625 255.136719 L 0 255.136719 Z M 0 119.628906 " fill-opacity="1" fill-rule="nonzero"/></g></g><g clip-path="url(#b2a1af90c2)"><g clip-path="url(#973f1c7e2f)"><path fill="#aab89b" d="M 0 119.628906 L 132.40625 119.628906 L 132.40625 255.136719 L 0 255.136719 Z M 0 119.628906 " fill-opacity="1" fill-rule="nonzero"/></g></g><g clip-path="url(#56606032b7)"><g clip-path="url(#60ebdb40aa)"><path fill="#aab89b" d="M 0 119.628906 L 132.40625 119.628906 L 132.40625 255.136719 L 0 255.136719 Z M 0 119.628906 " fill-opacity="1" fill-rule="nonzero"/></g></g><g clip-path="url(#b195741c83)"><g clip-path="url(#7e4471bac7)"><path fill="#aab89b" d="M 139.285156 119.671875 L 328.460938 119.671875 L 328.460938 255.324219 L 139.285156 255.324219 Z M 139.285156 119.671875 " fill-opacity="1" fill-rule="nonzero"/></g></g><g clip-path="url(#8a7201ad7e)"><g clip-path="url(#366637009f)"><path fill="#aab89b" d="M 139.285156 119.671875 L 328.460938 119.671875 L 328.460938 255.324219 L 139.285156 255.324219 Z M 139.285156 119.671875 " fill-opacity="1" fill-rule="nonzero"/></g></g><g clip-path="url(#60ab56df65)"><path fill="#aab89b" d="M 341.539062 125.914062 L 375 125.914062 L 375 249.039062 L 341.539062 249.039062 Z M 341.539062 125.914062 " fill-opacity="1" fill-rule="nonzero"/></g></svg>